<svg class="talk-logo cc-logo" viewBox="0 0 37 37" xmlns="http://www.w3.org/2000/svg" xmlns:xlink="http://www.w3.org/1999/xlink"><title>Contrary con logo</title><defs><path id="a" d="M37 37V0H0v37h37z"></path></defs><g><mask id="b" fill="#cea3fc"><use xlink:href="#a"></use></mask><path d="M31.168 13.32H27.84c-3.853 0-5.79 2.923-8.036 6.298-2.417 3.634-5.157 7.762-10.645 7.762H6.154v-3.7H9.16c3.853 0 5.79-2.848 8.035-6.223 2.418-3.635 5.157-7.688 10.646-7.688h3.33v3.55zm0 14.06H27.84c-3.92 0-6.436-2.127-8.436-4.655l2.013-2.97c1.685 2.28 3.505 3.925 6.424 3.925h3.33v3.7zM6.158 9.77h3c3.92 0 6.438 2.052 8.437 4.58l-2.012 2.93c-1.686-2.275-3.506-3.96-6.424-3.96H6.154V9.77zM18.5 0C8.282 0 0 8.283 0 18.5 0 28.718 8.282 37 18.5 37 28.717 37 37 28.718 37 18.5 37 8.283 28.717 0 18.5 0z" mask="url(#b)"></path></g></svg>
